<svg width="140" height="70" viewBox="0 0 140 70" fill="none" xmlns="http://www.w3.org/2000/svg">
<g clip-path="url(#clip0_47202_1458)">
<path d="M140 0H0L60.3623 65.7C65.6377 71.5 74.3623 71.5 79.6377 65.7L140 0Z" fill="#81B3D3"/>
<path d="M37.2319 0.5L69.7972 38.4L102.261 0.7L37.2319 0.5Z" fill="#23A9E1"/>
<path d="M61.9858 14.7H79.5366C78.2177 13.9 75.0728 10.1 73.4496 11.5C73.3481 11.6 68.4786 5.80004 65.3337 8.60004C62.5945 11.1 61.2757 8.30004 58.2322 10.2C54.58 12.6 60.2612 13.9 61.9858 14.7ZM89.0728 11.2L79.1308 11.3C83.0873 6.80004 84.8119 7.30004 89.0728 11.2Z" fill="white"/>
<path d="M99.0147 3.6V1.2H101.145L99.0147 3.6ZM49.1017 13C49.2031 13.1 51.5365 10.6 55.2901 8.1C58.7394 5.8 64.0147 3.2 69.8988 3.2C75.7828 3.2 81.1597 5.9 84.6089 8.2C88.3626 10.6 90.6959 13 90.7973 13.1L88.2611 16.1C83.6959 16.7 80.4495 20 75.9857 19.3C73.7539 18.9 73.6524 17.7 73.0437 16.4C72.5365 15.4 71.7249 15.6 70.7104 15.2C69.7973 14.8 69.1886 14.1 67.2611 14.5C65.6379 14.9 65.435 17.4 63.3046 17.3C62.1886 17.2 62.0872 15.7 60.464 13.7C56.3046 8.8 52.511 9.41045 49.8733 13.9104L49.1017 13ZM40.5799 1.2V3.1L38.9568 1.2H40.5799ZM95.2611 1.2H98.5075V4.2L95.2611 8V1.2ZM91.1017 12.6V1.2H94.6524V8.6L91.1017 12.6ZM90.5944 2.2V12.1C89.4785 11 88.2611 10 86.9423 9.1L90.5944 2.2ZM86.435 1.9V8.7C85.9278 8.4 85.522 8 84.9133 7.7C84.2031 7.3 83.493 6.8 82.6814 6.4L86.435 1.9ZM81.9713 1.7V6C80.9568 5.5 79.8408 5 78.8263 4.5L81.9713 1.7ZM82.58 1.2H86.3336L82.58 5.8V1.2ZM86.9423 1.2H90.5944L86.9423 8.3V1.2ZM78.0147 1.2H81.9713L78.4205 4.3C78.3191 4.3 78.2176 4.2 78.1162 4.2L78.0147 1.2ZM77.5075 1.6V4C76.493 3.6 75.4785 3.3 74.3626 3.1L77.5075 1.6ZM73.2466 1.6V2.9C72.5365 2.8 71.8263 2.7 71.0147 2.6L73.2466 1.6ZM66.3481 1.6L68.5799 2.6C67.7684 2.6 67.0582 2.7 66.3481 2.9V1.6ZM62.1886 1.6L65.3336 3.1C64.2176 3.3 63.2031 3.6 62.1886 4V1.6ZM65.8408 2.8L62.493 1.2H65.8408V2.8ZM69.3915 2.4L66.551 1.1H69.3915V2.4ZM70.1017 1.2H73.0437L70.1017 2.5V1.2ZM73.8553 1.2H77.1017L73.8553 2.8V1.2ZM61.2756 4.3L57.7249 1.2H61.6814V4.2L61.2756 4.3ZM57.6234 1.7L60.7684 4.4C59.6524 4.8 58.6379 5.3 57.6234 5.9V1.7ZM53.2611 1.9L56.9133 6.4C55.5944 7.1 54.377 7.9 53.2611 8.8V1.9ZM49.0002 2.2L52.6524 9.2C51.3336 10.2 50.1162 11.2 49.0002 12.4V2.2ZM52.7539 8.2L49.1017 1.1H52.7539V8.2ZM57.1162 5.7L53.3626 1.1H57.1162V5.7ZM44.3336 7.5L41.0872 3.7V1.2H44.3336V7.5ZM44.9423 1.2H48.493V12.4L44.9423 8.2V1.2ZM36.522 0V14.6L70.0002 54.5L103.479 15V0H36.522Z" fill="#491213"/>
<path d="M67.3624 46L70.0001 41.8L72.6378 46L70.0001 50.2L67.3624 46Z" fill="#23A9E1"/>
<path d="M75.2755 30.6C71.8263 28.6 72.6379 27.1 75.4784 25.7C77.0002 25 80.348 22.3 81.6668 23.2L75.2755 30.6ZM72.9422 33.1C70.9132 33 68.5799 32.7 66.5509 33.2C67.7683 33.5 70.8118 34.4 67.9712 35.1C68.9857 36.5 70.6089 36.4 71.6234 35.2C71.2176 35 70.9132 34.7 70.6089 34.5C71.7248 34.2 72.7393 33.6 72.9422 33.1ZM74.1596 31.5C73.2465 30.7 72.2321 30.7 71.4205 31.5C70.2031 29.4 65.9422 30.1 63.9132 29.8C65.0292 32.4 73.6523 32.9 74.1596 31.5ZM67.261 29.3C65.6379 28.8 60.3625 28.9 63.8118 27.5C64.9277 27.1 70.6089 27.6 67.261 29.3ZM69.29 26.3C68.7828 25.2 69.6958 23.9 71.0147 24.9C72.2321 25.7 70.406 26.9 69.29 26.3ZM66.348 26.4C64.0147 27.1 60.9712 25.6 64.7248 24.9C67.0581 24.4 69.4929 25.4 66.348 26.4C66.4494 26.4 66.2466 26.4 66.348 26.4ZM63.7103 20.2C63.2031 21.8 62.1886 22.1 62.29 20.2C62.3915 17.9 63.9132 18.5 65.5364 17.6C66.8552 16.9 67.5654 14.2 69.8987 15.8C70.9132 16.5 72.1306 15.9 72.435 17C72.435 16.9 69.4929 23.7 71.1161 23.7C67.8697 23.7 69.29 19.9 70.5074 17.3C69.29 17.9 67.3625 21.6 68.9857 22.3C68.1741 23.4 65.5364 24.9 64.2176 23.8C63.1016 22.8 63.7103 21.5 63.7103 20.2ZM59.6523 23C53.9712 23 57.8263 14.4 59.7538 14.9C61.9857 15.6 61.6813 23.1 59.6523 23ZM53.3625 14.8C50.7248 14.7 51.8408 12.2 53.6668 11.7C55.3915 11.2 58.9422 12.8 60.1596 13.9C58.3335 14.5 56.0002 14.4 53.9712 14.5C53.7683 12.5 53.261 13.2 53.3625 14.8Z" fill="#DC6243"/>
<path d="M72.8408 25.8C69.8987 22.8 77.2031 23.1 78.4205 22C79.2321 22.3 85.5219 16.6 87.0437 17C85.9277 18.3 83.5944 22.3 81.9712 22.3C80.6523 22.3 79.3335 22.1 78.319 23C76.7973 24.4 74.3625 25.1 72.8408 25.8Z" fill="#F49774"/>
<path d="M73.7534 22.2C72.1303 23.1 70.6085 19.7 73.4491 20C75.2752 20.2 77.2027 19.8 78.9274 20.1C77.6085 21.6 75.7824 22.4 73.7534 22.2Z" fill="#F4B1A4"/>
<path d="M51.8406 20.9C52.145 21.3 52.4493 21.7 52.3479 22.3C52.3479 22.7 51.7392 23.3 52.145 23.5L53.6667 21.7C53.2609 21.6 50.116 17.9 50.116 17.5L47.9856 18.6C48.087 19 48.7971 18.6 49.2029 18.6C49.7102 18.6 50.116 19 50.5218 19.3C49.4058 20.2 46.6667 22.6 46.3624 22.6C46.2609 22.6 45.6522 22.2 45.6522 22.6C45.6522 22.8 46.2609 23.3 46.3624 23.4L47.7827 25.1C48.1885 24.9 47.6812 24.6 47.8841 24.3C47.9856 24.1 51.1305 21.6 51.8406 20.9ZM48.3914 16.4C48.6957 16.3 48.7971 16.7 49 16.4L47.3769 14.5C47.174 14.2 46.8696 13.9 46.8696 14.5C46.9711 14.9 42.8116 18.2 42.6087 18.3C42.3044 18.4 42.1015 18 41.8986 18.4C42.4058 19 42.8116 19.5 43.3189 20.1C43.5218 20.3 43.6232 20.5 43.8261 20.7C44.029 20.9 43.9276 20.3 43.9276 20.3C43.8261 20 44.2319 19.7 44.5363 19.5C45.5508 18.5 48.087 16.4 48.3914 16.4ZM42.6087 15.8C41.4928 16.1 40.174 15.7 39.8696 14.5C39.4638 13.3 40.2754 12.1 41.1884 11.4C42.1015 10.7 43.5218 10.8 44.029 11.9C44.2319 12.4 44.1305 13 43.9276 13.5C43.8261 13.8 43.5218 14.1 43.9276 14.3C44.5363 13.6 45.0435 12.9 45.6522 12.2C44.9421 11.8 44.6377 11.1 44.1305 10.5C43.5218 9.79996 42.8116 9.09996 41.7971 8.99996C39.8696 8.69996 38.145 10.7 37.9421 12.4C37.8406 13.3 38.145 14.2 38.7537 15C39.2609 15.6 39.9711 16.1 40.3769 16.8C40.5798 16.9 42.2029 16.1 42.5073 16C42.7102 16 42.6087 15.9 42.6087 15.8C42.6087 15.8 42.1015 16 42.6087 15.8ZM68.4783 39.4C67.7682 38.9 65.8406 36.4 65.4348 35.9L65.2319 35.6L65.029 35.7C64.9276 35.8 65.1305 36.1 65.029 36.3C64.5218 37.1 61.2754 39.5 61.0725 39.7C60.6667 39.9 60.2609 39.6 60.058 39.9C60.5653 40.5 61.8841 42.2 62.087 42.2C62.3913 42.2 62.1884 41.7 62.1884 41.6C62.2899 41.4 63.9131 40 64.5218 39.5C64.7247 39.3 64.9276 39.8 65.1305 40C65.3334 40.3 65.4348 40.7 65.3334 41C65.2319 41.2 64.8261 41.6 65.1305 41.8C65.5363 41.3 66.6522 40 66.8551 39.8C67.058 39.6 66.4493 39.8 66.5508 39.7C66.3479 39.8 66.0435 39.9 65.8406 39.7C65.7392 39.7 65.1305 39 65.2319 38.9C65.5363 38.7 65.8406 38.3 66.2464 38.2C66.8551 38.1 67.2609 39.2 67.3624 39.6C67.4638 40 67.4638 40.4 67.2609 40.7C67.1595 41 66.9566 41.2 67.2609 41.3L68.6812 39.4C68.6812 39.5 68.5798 39.5 68.4783 39.4C68.5798 39.5 68.3769 39.4 68.4783 39.4ZM59.145 30.5C58.4348 30.5 57.7247 30.8 57.116 31.3C55.6957 32.5 55.4928 34.6 56.6087 36.1C57.9276 37.8 60.058 38 61.7827 36.8C63.2029 35.6 63.4058 33.5 62.2899 32C61.4783 31 60.2609 30.5 59.145 30.5ZM60.3624 31.9C61.2754 31.8 61.8841 32.7 61.4783 33.7C61.0725 34.7 60.058 35.7 59.0435 36.1C57.8261 36.6 57.0145 35.6 57.5218 34.4C57.9276 33.4 58.9421 32.4 59.9566 32C60.058 32 60.1595 31.9 60.3624 31.9ZM57.5218 27.3C57.8261 27.3 58.1305 27.7 58.3334 27.3L56.9131 25.6C56.5073 25.8 56.9131 26 56.8116 26.2C56.6087 26.5 55.087 26.7 54.6812 26.8C54.7827 26.4 55.2899 25.1 55.4928 25C55.8986 24.7 56.1015 25.3 56.3044 24.9L54.4783 22.8C54.2754 22.6 54.0725 22.1 53.8696 22.4C53.8696 22.4 53.8696 23.4 53.7682 23.5C53.6667 23.7 53.1595 25.9 52.5508 26.4C52.2464 26.7 51.029 27.7 50.7247 27.8C50.4203 27.9 50.2174 27.4 49.9131 27.8L51.5363 29.7C51.6377 29.8 51.9421 30.3 52.0435 30.3C52.3479 30.4 52.0435 29.7 52.145 29.6C52.2464 29.3 53.7682 27.8 54.4783 27.7C55.3913 27.5 56.5073 27.2 57.5218 27.3C57.7247 27.3 57.3189 27.3 57.5218 27.3ZM82.0725 34C82.174 34.4 82.2754 34.9 82.174 35.3C82.0725 35.9 81.5653 37.2 80.7537 36.8C79.9421 36.4 79.3334 35.7 78.6232 35.1C79.1305 34.5 79.6377 34 80.5508 34.3C80.7537 34.4 80.9566 34.3 80.7537 34.1C80.4493 33.9 78.7247 32.8 78.6232 32.9C78.4203 33.1 78.9276 33.5 78.7247 33.9C78.6232 34.2 78.3189 34.4 78.116 34.7C77.6087 34.3 76.8986 33.9 77.4058 33.2C77.8116 32.8 78.2174 32.4 78.8261 32.3C79.2319 32.2 80.0435 32.6 80.145 32.2C79.4348 31.9 78.7247 31.5 78.0145 31.2C78.116 31.7 75.7827 34.1 75.2754 34.7C75.174 34.8 74.8696 35.1 74.8696 35.2C74.8696 35.5 75.2754 35.3 75.2754 35.3C75.5798 35.2 79.7392 38.6 79.8406 38.9C79.9421 39.1 79.7392 39.3 79.8406 39.4C79.8406 39.4 79.9421 39.5 80.0435 39.5C80.3479 39.2 82.9856 35.6 83.5942 35.5C83.087 34.7 82.5798 33.9 82.0725 33.1C81.6667 33.3 81.9711 33.8 82.0725 34ZM78.0145 38.4C76.6957 37.5 74.3624 39.2 73.9566 39.4C73.2464 39.7 72.7392 39 73.145 38.4C73.4493 37.9 74.058 37.6 74.6667 37.6C74.8696 37.6 75.5798 37.7 75.5798 37.6C75.6812 37.5 75.6812 37.5 75.5798 37.4C74.9711 37 74.4638 36.6 73.8551 36.3C73.7537 37 72.9421 37.4 72.5363 37.9C72.029 38.5 71.5218 39.2 71.5218 39.9C71.5218 40.6 71.9276 41.3 72.6377 41.6C73.3479 42 74.1595 41.7 74.8696 41.3C75.2754 41 75.6812 40.7 76.087 40.5C76.6957 40.2 77.6087 40.5 77.4058 41.3C77.2029 42 76.4928 42.6 75.7827 42.8C75.3769 42.9 74.9711 42.9 74.5653 42.7C74.2609 42.6 73.9566 42.2 73.7537 42.6L76.087 44.2C76.1885 43.7 76.3913 43.5 76.7971 43.2C77.3044 42.8 77.7102 42.3 78.116 41.8C78.9276 40.9 79.2319 39.3 78.0145 38.4ZM95.8696 10.3C95.8696 10.4 95.8696 10.4 95.8696 10.3L94.9566 11.3L94.145 12.3C93.9421 12.5 93.8406 12.6 94.145 12.8C94.6522 12.5 97.6957 17.6 97.4928 18.3C96.9856 18.5 92.9276 15 92.8261 14.8C92.8261 14.7 93.029 14.1 92.7247 14.2C92.6232 14.2 92.2174 14.8 92.116 14.9L91.5073 15.6C91.7102 15.9 91.8116 15.6 92.116 15.6C92.3189 15.7 93.3334 16.5 93.6377 16.7C93.1305 16.7 91.9131 16.8 91.7102 16.8C91.1015 16.9 91.4058 16.4 91 16.2L89.4783 18L88.5653 19C88.5653 19 88.5653 19 88.5653 19.1C88.7682 19.3 88.6667 19.2 88.9711 19.1C89.2754 19 93.3334 22.3 93.4348 22.5C93.6377 22.8 93.3334 23.1 93.7392 23.3L94.9566 21.9C95.058 21.8 95.058 21.8 94.9566 21.8C94.6522 21.6 94.6522 21.9 94.2464 21.9C93.9421 21.8 91.3044 19.7 90.3913 18.9L95.7682 18.7C95.9711 18.7 96.4783 19.3 96.4783 19.5C96.3769 19.7 96.174 19.9 96.4783 20C96.7827 19.6 97.087 19.3 97.3913 18.9L97.4928 18.7C97.5942 18.7 97.5942 18.6 97.5942 18.5L97.6957 18.4C98 18.1 98.9131 17.1 98.8116 17C98.5073 16.7 98.4058 17.3 98 17C97.7971 16.8 97.1884 15.8 97.087 15.6C96.8841 15.3 97.4928 15 97.6957 14.9C98.2029 14.6 99.8261 14.1 100.029 15.1C100.029 15.3 99.8261 15.5 99.9276 15.6C99.9276 15.6 100.029 15.8 100.13 15.7L102.261 13.1C102.159 13 102.159 13 102.058 12.9C101.551 13.4 96.4783 11.4 96.174 11.1C96.0725 10.9 96.0725 10.3 95.8696 10.3ZM95.6667 12.9C96.4783 13.2 97.1884 13.5 98 13.9C97.7971 14 97.5942 14.1 97.3913 14.2C97.1885 14.3 96.9856 14.5 96.7827 14.7L95.6667 12.9ZM88.9711 20.6C87.8551 20.5 86.7392 21 85.9276 21.9C84.7102 23.4 84.8116 25.6 86.3334 26.8C87.8551 28 90.087 27.7 91.3044 26.3C92.5218 24.8 92.4203 22.6 90.8986 21.4C90.3913 21 89.6812 20.7 88.9711 20.6ZM87.5508 22.2C88.1595 22.2 88.8696 22.6 89.2754 22.9C90.087 23.4 91.5073 24.6 90.7971 25.6C90.7971 25.5 90.8986 25.5 90.6957 25.7C89.8841 26.5 88.4638 25.8 87.7537 25.2C87.0435 24.7 85.7247 23.5 86.5363 22.5C86.8406 22.3 87.145 22.2 87.5508 22.2ZM84.4058 26.5C83.1884 26.4 81.9711 27 81.058 28.1C80.4493 28.9 79.7392 29.6 79.1305 30.4C79.3334 30.7 79.6377 30.3 79.9421 30.5C80.2464 30.7 84.1015 33.8 84.1015 34C84.2029 34.3 83.8986 34.4 84.2029 34.6C84.3044 34.7 87.145 31.2 87.4493 30.6C87.8551 29.5 87.5508 28.2 86.6377 27.4C86.7392 27.5 86.8406 27.5 86.6377 27.4C85.8261 26.8 85.116 26.5 84.4058 26.5ZM83.2899 28.1C83.3913 28.1 83.4928 28.1 83.5942 28.1C85.0145 28.5 87.0435 30.2 85.7247 31.7C85.5218 31.9 85.7247 31.7 85.3189 32.1C85.116 32.3 81.058 29.1 81.2609 28.9C81.6667 28.4 82.5798 28 83.2899 28.1Z" fill="white"/>
</g>
<defs>
<clipPath id="clip0_47202_1458">
<rect width="140" height="70" fill="white"/>
</clipPath>
</defs>
</svg>
